<?xml version="1.0" standalone="no"?>
<!DOCTYPE svg PUBLIC "-//W3C//DTD SVG 20010904//EN"
 "http://www.w3.org/TR/2001/REC-SVG-20010904/DTD/svg10.dtd">
<svg version="1.0" xmlns="http://www.w3.org/2000/svg"
 width="512.000000pt" height="512.000000pt" viewBox="0 0 512.000000 512.000000"
 preserveAspectRatio="xMidYMid meet">

<g transform="translate(0.000000,512.000000) scale(0.100000,-0.100000)"
fill="#000000" stroke="none">
<path d="M1055 5025 c-242 -38 -460 -150 -635 -325 -131 -130 -223 -278 -280
-450 -134 -398 -34 -846 257 -1151 97 -102 162 -151 341 -259 l142 -85 0 -152
0 -152 -87 -57 c-162 -104 -337 -302 -426 -479 -35 -72 -76 -187 -99 -285 -29
-122 -38 -676 -14 -819 63 -364 352 -654 714 -716 75 -13 166 -15 519 -13
l428 3 58 27 59 28 36 -28 35 -27 596 -3 c401 -2 608 0 633 8 45 13 95 68 104
115 l6 35 748 2 c738 3 749 3 776 24 15 11 37 33 48 48 21 27 21 39 24 624 2
401 0 609 -8 634 -13 45 -68 95 -115 104 l-35 6 0 654 c0 530 -3 661 -14 687
-17 43 -68 85 -111 93 l-34 6 -3 508 c-3 496 -4 509 -24 536 -11 15 -33 37
-48 48 -27 21 -33 21 -1046 21 -1013 0 -1019 0 -1046 -21 -15 -11 -37 -33 -48
-48 -21 -27 -21 -37 -24 -856 l-2 -829 -269 -3 c-254 -3 -271 -4 -297 -24 -65
-48 -69 -61 -74 -240 l-5 -165 -40 41 c-45 47 -180 154 -237 189 l-38 23 0
168 0 168 168 3 168 4 76 37 c91 45 147 103 191 196 l32 67 3 222 4 222 26 17
c104 65 150 171 123 281 -7 26 -43 94 -82 153 l-69 107 0 79 0 79 64 33 c115
60 207 177 241 309 65 249 -94 511 -350 578 -49 12 -136 15 -520 14 -317 -1
-485 -5 -540 -14z m583 -943 l362 -3 0 -77 c1 -97 11 -125 89 -240 34 -52 65
-109 68 -127 5 -30 1 -39 -30 -67 -19 -18 -49 -44 -67 -57 -52 -39 -60 -72
-60 -241 l0 -150 -84 0 c-46 0 -98 3 -116 7 -45 8 -107 72 -116 117 l-6 36
-80 0 -81 0 7 -47 c13 -100 85 -196 181 -243 42 -21 69 -25 163 -28 61 -2 112
-6 112 -9 0 -13 -32 -62 -57 -84 -68 -63 -69 -64 -410 -67 l-313 -3 0 -80 0
-79 80 0 80 0 0 -129 0 -129 -51 19 c-56 22 -174 54 -231 64 l-38 6 0 484 0
483 -108 4 c-102 3 -111 5 -146 32 -87 66 -87 186 0 252 35 27 44 29 146 32
l108 4 0 87 c0 121 19 180 79 242 l48 50 54 -28 54 -28 363 -3z m1642 -242 l0
-240 320 0 320 0 0 240 0 240 320 0 320 0 0 -480 0 -480 -584 0 -583 0 -34
-23 c-65 -44 -79 -77 -79 -193 l0 -104 -80 0 -80 0 0 -80 0 -80 80 0 80 0 0
-80 0 -80 -320 0 -320 0 0 800 0 800 320 0 320 0 0 -240z m480 80 l0 -160
-160 0 -160 0 0 160 0 160 160 0 160 0 0 -160z m0 -1120 l0 -160 320 0 320 0
0 160 0 160 160 0 160 0 0 -640 0 -640 -640 0 -640 0 0 640 0 640 160 0 160 0
0 -160z m480 80 l0 -80 -160 0 -160 0 0 80 0 80 160 0 160 0 0 -80z m-3065
-606 c367 -102 677 -399 799 -766 24 -71 26 -90 26 -254 l0 -178 -218 216
c-236 235 -240 238 -338 224 -152 -20 -267 -175 -239 -322 5 -32 32 -64 155
-189 l149 -150 -34 -22 c-19 -12 -46 -43 -61 -69 l-27 -46 -166 4 c-138 3
-172 6 -201 22 -49 26 -88 64 -113 111 -21 38 -22 54 -25 353 l-3 312 -80 0
-79 0 0 -310 c0 -287 2 -314 21 -373 39 -120 136 -217 256 -256 53 -18 88 -21
213 -21 l150 0 0 -160 0 -160 -150 0 c-220 0 -352 32 -479 117 -168 111 -276
272 -316 471 -14 70 -16 130 -13 390 5 290 6 312 30 403 14 52 40 130 58 171
72 174 227 359 392 468 l87 57 58 -9 c32 -4 99 -20 148 -34z m2105 -194 l0
-240 -80 0 c-77 0 -80 1 -80 24 0 31 -38 85 -79 113 -33 23 -39 23 -321 23
-282 0 -288 0 -321 -23 -41 -28 -79 -82 -79 -113 0 -24 -2 -24 -100 -24 -103
0 -141 -10 -170 -45 -12 -14 -15 -13 -31 12 -17 25 -19 52 -19 271 l0 242 640
0 640 0 0 -240z m-320 -320 l0 -80 -240 0 -240 0 0 80 0 80 240 0 240 0 0 -80z
m-636 -115 c8 -43 50 -94 93 -111 47 -20 559 -20 606 0 43 17 85 68 93 111 l6
35 79 0 79 0 0 -720 0 -720 -560 0 -560 0 0 720 0 720 79 0 79 0 6 -35z m1276
-685 l0 -560 -80 0 -80 0 0 560 0 560 80 0 80 0 0 -560z m480 400 l0 -160 240
0 240 0 0 160 0 160 160 0 160 0 0 -560 0 -560 -560 0 -560 0 0 560 0 560 160
0 160 0 0 -160z m320 80 l0 -80 -80 0 -80 0 0 80 0 80 80 0 80 0 0 -80z
m-2875 -120 l39 -40 -62 -62 -62 -62 -40 39 c-44 43 -46 63 -14 113 14 22 65
51 89 52 6 0 29 -18 50 -40z m317 -317 l158 -158 0 -82 c0 -46 -2 -83 -5 -83
-2 0 -19 6 -37 14 -18 8 -44 17 -58 20 -15 3 -90 70 -185 166 l-160 160 60 60
c33 33 62 60 65 60 2 0 76 -71 162 -157z m-187 -308 c21 -20 25 -34 25 -80 l0
-55 96 0 c111 0 151 -14 192 -68 36 -47 38 -132 4 -179 -46 -64 -58 -68 -264
-71 l-188 -4 0 192 c0 171 2 195 20 230 33 64 74 77 115 35z"/>
<path d="M1360 3863 c0 -91 16 -132 74 -189 53 -54 99 -74 166 -74 67 0 113
20 166 74 58 57 74 98 74 189 l0 57 -80 0 -80 0 0 -45 c0 -58 -16 -91 -51
-106 -22 -9 -36 -9 -58 0 -35 15 -51 48 -51 106 l0 45 -80 0 -80 0 0 -57z"/>
<path d="M2800 2720 l0 -80 80 0 80 0 0 80 0 80 -80 0 -80 0 0 -80z"/>
<path d="M3600 1920 l0 -80 80 0 80 0 0 80 0 80 -80 0 -80 0 0 -80z"/>
<path d="M3920 1920 l0 -80 80 0 80 0 0 80 0 80 -80 0 -80 0 0 -80z"/>
</g>
</svg>
